<svg width="116" height="23" viewBox="0 0 116 23" fill="none" xmlns="http://www.w3.org/2000/svg">
<path d="M5.77841 13.5H1.13778V0.409091H5.81676C7.13352 0.409091 8.26705 0.671165 9.21733 1.19531C10.1676 1.7152 10.8984 2.46307 11.4098 3.43892C11.9254 4.41477 12.1832 5.58239 12.1832 6.94176C12.1832 8.3054 11.9254 9.47727 11.4098 10.4574C10.8984 11.4375 10.1634 12.1896 9.20455 12.7138C8.25 13.2379 7.10795 13.5 5.77841 13.5ZM3.90554 11.1286H5.66335C6.48153 11.1286 7.16974 10.9837 7.72798 10.6939C8.29048 10.3999 8.71236 9.94602 8.99361 9.33239C9.27912 8.71449 9.42188 7.91761 9.42188 6.94176C9.42188 5.97443 9.27912 5.18395 8.99361 4.57031C8.71236 3.95668 8.29261 3.50497 7.73438 3.2152C7.17614 2.92543 6.48793 2.78054 5.66974 2.78054H3.90554V11.1286ZM14.3012 0.409091V13.5H11.5335V0.409091H14.3012ZM16.1348 13.5H13.1689L17.6881 0.409091H21.2548L25.7676 13.5H22.8017L19.5226 3.40057H19.4203L16.1348 13.5ZM15.9494 8.3544H22.9551V10.5149H15.9494V8.3544ZM30.5453 13.5H26.7101V0.409091H30.7755C32.024 0.409091 33.0915 0.669034 33.9779 1.18892C34.8685 1.70881 35.5503 2.45455 36.0233 3.42614C36.4963 4.39773 36.7328 5.56321 36.7328 6.92259C36.7328 8.29474 36.49 9.47301 36.0042 10.4574C35.5226 11.4375 34.8195 12.1896 33.8948 12.7138C32.9743 13.2379 31.8578 13.5 30.5453 13.5ZM27.9054 12.4261H30.475C31.6 12.4261 32.5418 12.2045 33.3003 11.7614C34.0588 11.3182 34.6277 10.6854 35.007 9.86293C35.3863 9.04048 35.5759 8.06037 35.5759 6.92259C35.5716 5.79332 35.3841 4.82173 35.0134 4.00781C34.6469 3.19389 34.1015 2.5696 33.377 2.13494C32.6569 1.70028 31.7662 1.48295 30.7052 1.48295H27.9054V12.4261ZM36.93 13.5V0.409091H44.5238V1.48295H38.1254V6.41122H44.1211V7.48509H38.1254V12.4261H44.6516V13.5H36.93ZM53.7808 4.17401C53.7296 3.65838 53.5102 3.25781 53.1224 2.9723C52.7346 2.68679 52.2083 2.54403 51.5435 2.54403C51.0918 2.54403 50.7104 2.60795 50.3994 2.7358C50.0883 2.85937 49.8496 3.03196 49.6835 3.25355C49.5215 3.47514 49.4406 3.72656 49.4406 4.00781C49.432 4.24219 49.481 4.44673 49.5876 4.62145C49.6984 4.79616 49.8496 4.94744 50.0414 5.07528C50.2332 5.19886 50.4548 5.30753 50.7062 5.40128C50.9576 5.49077 51.2261 5.56747 51.5116 5.63139L52.6877 5.91264C53.2587 6.04048 53.7829 6.21094 54.2602 6.42401C54.7374 6.63707 55.1508 6.89915 55.5002 7.21023C55.8496 7.52131 56.1202 7.88778 56.312 8.30966C56.508 8.73153 56.6082 9.2152 56.6124 9.76065C56.6082 10.5618 56.4036 11.2564 55.9988 11.8445C55.5982 12.4283 55.0187 12.8821 54.2602 13.206C53.5059 13.5256 52.5961 13.6854 51.5308 13.6854C50.4739 13.6854 49.5535 13.5234 48.7694 13.1996C47.9896 12.8757 47.3802 12.3963 46.9413 11.7614C46.5066 11.1222 46.2786 10.3317 46.2573 9.38991H48.9356C48.9654 9.82884 49.0911 10.1953 49.3127 10.4893C49.5386 10.7791 49.839 10.9986 50.214 11.1477C50.5933 11.2926 51.0215 11.3651 51.4988 11.3651C51.9675 11.3651 52.3745 11.2969 52.7197 11.1605C53.0691 11.0241 53.3397 10.8345 53.5315 10.5916C53.7232 10.3487 53.8191 10.0696 53.8191 9.75426C53.8191 9.46023 53.7317 9.21307 53.557 9.01278C53.3866 8.8125 53.1352 8.64205 52.8028 8.50142C52.4746 8.3608 52.0719 8.23295 51.5947 8.1179L50.1692 7.75994C49.0656 7.49148 48.1941 7.07173 47.5549 6.50071C46.9157 5.92969 46.5982 5.16051 46.6025 4.19318C46.5982 3.40057 46.8092 2.7081 47.2353 2.11577C47.6657 1.52344 48.2559 1.06108 49.0059 0.728693C49.7559 0.396306 50.6082 0.230113 51.5627 0.230113C52.5343 0.230113 53.3823 0.396306 54.1067 0.728693C54.8354 1.06108 55.4022 1.52344 55.807 2.11577C56.2119 2.7081 56.4207 3.39418 56.4334 4.17401H53.7808ZM55.7741 13.5V0.409091H64.5951V2.69105H58.5419V5.81037H64.1413V8.09233H58.5419V11.218H64.6207V13.5H55.7741ZM64.0956 0.409091H67.5089L71.1141 9.20455H71.2675L74.8726 0.409091H78.2859V13.5H75.6013V4.9794H75.4926L72.1048 13.4361H70.2767L66.8889 4.94744H66.7803V13.5H64.0956V0.409091ZM80.1227 13.5H77.1568L81.676 0.409091H85.2427L89.7555 13.5H86.7896L83.5105 3.40057H83.4082L80.1227 13.5ZM79.9373 8.3544H86.943V10.5149H79.9373V8.3544ZM99.5807 0.409091V13.5H97.1901L91.4948 5.26065H91.3989V13.5H88.6311V0.409091H91.0601L96.7107 8.64205H96.8257V0.409091H99.5807ZM101.424 13.5H98.458L102.977 0.409091H106.544L111.057 13.5H108.091L104.812 3.40057H104.709L101.424 13.5ZM101.238 8.3544H108.244V10.5149H101.238V8.3544Z" fill="#222222"/>
<path d="M109.388 21.0618C109.017 21.0618 108.722 20.9657 108.502 20.7736C108.283 20.5814 108.118 20.3481 108.008 20.0736C107.912 19.7853 107.864 19.5177 107.864 19.2706C107.864 18.9412 107.926 18.5775 108.05 18.1795C108.173 17.7677 108.283 17.4863 108.379 17.3353C108.379 17.2942 108.372 17.253 108.358 17.2118C108.358 17.1569 108.358 17.1089 108.358 17.0677C108.358 16.6971 108.413 16.3128 108.523 15.9148C108.647 15.4481 108.866 15.0226 109.182 14.6383C109.498 14.2402 109.889 13.9177 110.355 13.6706C110.836 13.4236 111.357 13.3 111.92 13.3C112.579 13.3 113.087 13.4785 113.444 13.8353C113.801 14.1785 113.979 14.6314 113.979 15.1942C113.979 15.9765 113.835 16.6491 113.547 17.2118C113.272 17.7746 112.977 18.3167 112.661 18.8383C112.606 18.9481 112.558 19.0373 112.517 19.1059C112.476 19.1746 112.517 19.2089 112.641 19.2089C113.039 19.2089 113.43 19.0442 113.814 18.7148C114.199 18.3853 114.686 17.7608 115.276 16.8412C115.317 16.7726 115.358 16.7177 115.4 16.6765C115.441 16.6353 115.502 16.6148 115.585 16.6148H115.626C115.777 16.6148 115.866 16.704 115.894 16.8824C115.894 16.9236 115.88 16.9716 115.852 17.0265C115.509 17.6304 115.159 18.152 114.802 18.5912C114.459 19.0304 114.048 19.3667 113.567 19.6C113.087 19.8197 112.483 19.9363 111.755 19.95C111.467 20.2246 111.11 20.4785 110.685 20.7118C110.273 20.9451 109.841 21.0618 109.388 21.0618ZM111.364 19.1677H111.57C111.858 18.8246 112.133 18.4334 112.394 17.9942C112.668 17.555 112.888 17.102 113.052 16.6353C113.217 16.155 113.3 15.702 113.3 15.2765C113.3 14.8785 113.197 14.5422 112.991 14.2677C112.785 13.9795 112.428 13.8353 111.92 13.8353C111.577 13.8353 111.241 13.9108 110.911 14.0618C110.596 14.1991 110.321 14.3706 110.088 14.5765L110.15 14.6589C110.177 14.6451 110.218 14.6383 110.273 14.6383C110.355 14.6383 110.431 14.6726 110.5 14.7412C110.568 14.7961 110.602 14.8579 110.602 14.9265C110.602 14.9677 110.596 15.002 110.582 15.0295C110.568 15.0569 110.548 15.0844 110.52 15.1118C110.287 15.455 110.06 15.7775 109.841 16.0795C109.621 16.3814 109.415 16.7246 109.223 17.1089C109.182 17.205 109.134 17.301 109.079 17.3971C109.189 17.905 109.443 18.3304 109.841 18.6736C110.252 19.003 110.76 19.1677 111.364 19.1677ZM109.511 20.4853C109.786 20.4853 110.06 20.403 110.335 20.2383C110.609 20.0599 110.843 19.8951 111.035 19.7442C109.992 19.6344 109.223 19.1746 108.729 18.3648C108.715 18.4608 108.688 18.6049 108.647 18.7971C108.605 18.9893 108.585 19.1814 108.585 19.3736C108.585 19.6481 108.647 19.902 108.77 20.1353C108.894 20.3687 109.141 20.4853 109.511 20.4853Z" fill="#868686"/>
<path d="M102.36 20.8146C102.1 20.8146 101.928 20.6979 101.846 20.4646C101.763 20.2313 101.722 20.0254 101.722 19.847C101.722 19.5313 101.763 19.1264 101.846 18.6322C101.928 18.1381 102.038 17.6234 102.175 17.0881C102.01 17.3489 101.832 17.6097 101.64 17.8705C101.461 18.1313 101.297 18.3715 101.146 18.5911C101.091 18.6872 101.008 18.7352 100.899 18.7352C100.803 18.7352 100.72 18.694 100.652 18.6117C100.569 18.5293 100.562 18.4401 100.631 18.344C100.809 18.0832 101.043 17.7332 101.331 17.294C101.633 16.8548 101.935 16.395 102.237 15.9146C102.539 15.4342 102.793 15.0156 102.999 14.6587C103.067 14.5352 103.129 14.4254 103.184 14.3293C103.253 14.2195 103.314 14.1234 103.369 14.0411C103.465 13.945 103.596 13.897 103.76 13.897C103.857 13.897 103.939 13.9244 104.007 13.9793C104.09 14.0342 104.131 14.1097 104.131 14.2058C104.131 14.2332 104.124 14.2607 104.11 14.2881C104.097 14.3156 104.083 14.343 104.069 14.3705C103.932 14.5901 103.808 14.8166 103.699 15.0499C103.589 15.2832 103.493 15.5166 103.41 15.7499C103.205 16.3813 103.006 17.0401 102.813 17.7264C102.635 18.3989 102.532 19.0646 102.505 19.7234L102.587 19.744C102.903 19.2499 103.287 18.7146 103.74 18.1381C104.207 17.5479 104.714 16.9646 105.263 16.3881C105.812 15.7979 106.375 15.2626 106.952 14.7822C107.528 14.2881 108.084 13.8901 108.619 13.5881C108.702 13.547 108.777 13.5264 108.846 13.5264C108.942 13.5264 109.024 13.5607 109.093 13.6293C109.161 13.6842 109.196 13.7528 109.196 13.8352C109.196 13.9175 109.148 13.993 109.052 14.0617C108.832 14.1989 108.612 14.343 108.393 14.494C108.187 14.645 107.981 14.796 107.775 14.947C106.979 15.5509 106.252 16.2166 105.593 16.944C104.934 17.6577 104.337 18.4126 103.802 19.2087C103.678 19.3872 103.561 19.5724 103.452 19.7646C103.342 19.9568 103.232 20.1489 103.122 20.3411C103.04 20.4509 102.93 20.5538 102.793 20.6499C102.669 20.7597 102.525 20.8146 102.36 20.8146Z" fill="#868686"/>
<path d="M98.217 20.8764C97.9562 20.8764 97.7297 20.794 97.5376 20.6293C97.3591 20.4646 97.2699 20.2038 97.2699 19.8469C97.2699 19.5587 97.3248 19.2636 97.4346 18.9616C97.5444 18.646 97.6474 18.3989 97.7434 18.2205C97.963 17.7813 98.1964 17.3764 98.4434 17.0058C98.6905 16.6215 98.8758 16.3469 98.9993 16.1822C98.7523 16.196 98.4572 16.1342 98.114 15.9969C97.7846 15.8597 97.5513 15.6813 97.414 15.4616C97.2356 15.7224 96.9817 16.1479 96.6523 16.7381C96.3228 17.3146 95.9042 17.9254 95.3964 18.5705C95.314 18.6803 95.2179 18.7352 95.1081 18.7352C94.9023 18.7352 94.7993 18.646 94.7993 18.4675C94.7993 18.3989 94.8199 18.3371 94.8611 18.2822C95.067 17.994 95.3209 17.6234 95.6228 17.1705C95.9385 16.7038 96.2405 16.2234 96.5287 15.7293C96.8307 15.2215 97.0709 14.7685 97.2493 14.3705C97.3042 14.2469 97.3591 14.1165 97.414 13.9793C97.4826 13.842 97.5444 13.7116 97.5993 13.5881C97.6542 13.492 97.7297 13.4097 97.8258 13.3411C97.9219 13.2587 98.0317 13.2175 98.1552 13.2175C98.265 13.2175 98.3748 13.2656 98.4846 13.3616C98.5944 13.444 98.6493 13.5401 98.6493 13.6499C98.6493 13.7734 98.6013 13.9313 98.5052 14.1234C98.4228 14.3018 98.3336 14.4871 98.2376 14.6793C98.1415 14.8715 98.0934 15.043 98.0934 15.194C98.0934 15.3175 98.1964 15.3999 98.4023 15.4411C98.6081 15.4822 98.7591 15.5028 98.8552 15.5028C99.2258 15.5028 99.5346 15.4273 99.7817 15.2764C100.029 15.1254 100.2 15.0499 100.296 15.0499C100.379 15.0499 100.447 15.0842 100.502 15.1528C100.571 15.2077 100.605 15.2695 100.605 15.3381C100.605 15.4342 100.564 15.5165 100.482 15.5852C100.29 15.7636 100.063 16.0175 99.8023 16.3469C99.5415 16.6764 99.2807 17.0332 99.0199 17.4175C98.7591 17.8018 98.5326 18.1793 98.3405 18.5499C98.2856 18.6871 98.2032 18.8793 98.0934 19.1264C97.9974 19.3734 97.9493 19.6067 97.9493 19.8264C97.9493 20.1969 98.0797 20.3822 98.3405 20.3822C98.4503 20.3822 98.5738 20.3411 98.7111 20.2587C98.8621 20.1764 99.0062 20.0803 99.1434 19.9705C99.4728 19.6685 99.7611 19.3734 100.008 19.0852C100.269 18.7832 100.53 18.4469 100.79 18.0764C101.051 17.7058 101.353 17.2597 101.696 16.7381C101.751 16.642 101.847 16.594 101.985 16.594C102.163 16.594 102.252 16.6764 102.252 16.8411C102.252 16.9234 102.211 17.0401 102.129 17.1911C101.937 17.5342 101.683 17.9116 101.367 18.3234C101.065 18.7352 100.749 19.1264 100.42 19.4969C100.104 19.8538 99.8228 20.1283 99.5758 20.3205C99.1366 20.6911 98.6836 20.8764 98.217 20.8764Z" fill="#868686"/>
<path d="M91.8026 20.7941C91.0889 20.7941 90.5879 20.5882 90.2997 20.1765C90.0252 19.751 89.8879 19.2568 89.8879 18.6941C89.8879 18.2823 89.9909 17.7951 90.1968 17.2323C90.4026 16.6559 90.684 16.0931 91.0409 15.5441C91.4115 14.9951 91.837 14.5421 92.3174 14.1853C92.7977 13.8147 93.3124 13.6294 93.8615 13.6294C94.2183 13.6294 94.4997 13.7323 94.7056 13.9382C94.9252 14.1304 95.035 14.3774 95.035 14.6794C95.035 15.2559 94.8497 15.8117 94.4791 16.347C94.1085 16.8823 93.6281 17.3216 93.0379 17.6647C92.4477 18.0078 91.8164 18.1794 91.1438 18.1794C91.0615 18.1794 90.9791 18.1794 90.8968 18.1794C90.8144 18.1657 90.7321 18.1519 90.6497 18.1382C90.6085 18.3166 90.5879 18.5225 90.5879 18.7559C90.5879 19.1127 90.6703 19.4421 90.835 19.7441C91.0134 20.0461 91.3497 20.197 91.8438 20.197C92.2556 20.197 92.6536 20.0941 93.0379 19.8882C93.4223 19.6823 93.7448 19.449 94.0056 19.1882C94.2664 18.9274 94.486 18.6941 94.6644 18.4882C94.8428 18.2823 95.0281 18.049 95.2203 17.7882C95.4124 17.5137 95.6526 17.1568 95.9409 16.7176C95.9958 16.6216 96.0781 16.5735 96.1879 16.5735C96.3801 16.5735 96.4762 16.6765 96.4762 16.8823C96.4762 16.951 96.4624 17.0059 96.435 17.047C96.0644 17.6784 95.6526 18.2823 95.1997 18.8588C94.7468 19.4216 94.2389 19.8882 93.6762 20.2588C93.1272 20.6157 92.5026 20.7941 91.8026 20.7941ZM91.2879 17.5412C91.8095 17.5412 92.2968 17.4039 92.7497 17.1294C93.2164 16.8412 93.5938 16.4843 93.8821 16.0588C94.184 15.6333 94.335 15.201 94.335 14.7617C94.335 14.6108 94.2938 14.4872 94.2115 14.3912C94.1428 14.2951 94.0193 14.247 93.8409 14.247C93.484 14.247 93.1409 14.3706 92.8115 14.6176C92.4821 14.851 92.1801 15.1529 91.9056 15.5235C91.6448 15.8804 91.4183 16.2372 91.2262 16.5941C91.0477 16.951 90.9174 17.2529 90.835 17.5C90.9036 17.5137 90.9723 17.5274 91.0409 17.5412C91.1232 17.5412 91.2056 17.5412 91.2879 17.5412Z" fill="#868686"/>
<path d="M86.2789 20.7942C85.5651 20.7942 85.0299 20.5608 84.673 20.0942C84.3161 19.6275 84.1377 19.1128 84.1377 18.55C84.1377 18.1932 84.1926 17.85 84.3024 17.5206C84.4122 17.1775 84.5563 16.855 84.7348 16.553C84.8995 16.251 85.1191 15.9148 85.3936 15.5442C85.6681 15.1736 85.9838 14.8167 86.3406 14.4736C86.6975 14.1304 87.0818 13.8491 87.4936 13.6295C87.9053 13.4099 88.3377 13.3 88.7906 13.3C89.1749 13.3 89.4563 13.4167 89.6348 13.65C89.8269 13.8834 89.923 14.151 89.923 14.453C89.923 14.5491 89.8955 14.7 89.8406 14.9059C89.7857 15.1118 89.7102 15.3246 89.6142 15.5442C89.5318 15.7638 89.4289 15.9559 89.3053 16.1206C89.1818 16.2716 89.0446 16.3471 88.8936 16.3471C88.8112 16.3471 88.7357 16.3197 88.6671 16.2648C88.5985 16.1961 88.5642 16.1275 88.5642 16.0589C88.5642 16.0177 88.6191 15.9216 88.7289 15.7706C88.8387 15.6197 88.9485 15.4344 89.0583 15.2148C89.1681 14.9951 89.223 14.7618 89.223 14.5148C89.223 14.3638 89.1818 14.2265 89.0995 14.103C89.0308 13.9795 88.8936 13.9177 88.6877 13.9177C88.3446 13.9177 87.9946 14.0275 87.6377 14.2471C87.2946 14.453 86.972 14.7206 86.67 15.05C86.3681 15.3657 86.1004 15.6883 85.8671 16.0177C85.6338 16.3334 85.4553 16.6079 85.3318 16.8412C85.1946 17.0883 85.0848 17.3491 85.0024 17.6236C84.9338 17.8844 84.8995 18.152 84.8995 18.4265C84.8995 18.701 84.9406 18.9755 85.023 19.25C85.1053 19.5246 85.2495 19.751 85.4553 19.9295C85.6612 20.1079 85.9495 20.1971 86.32 20.1971C86.7318 20.1971 87.1299 20.0942 87.5142 19.8883C87.8985 19.6824 88.221 19.4491 88.4818 19.1883C88.7563 18.9275 88.9759 18.6942 89.1406 18.4883C89.3191 18.2824 89.4975 18.0491 89.6759 17.7883C89.8681 17.5138 90.1083 17.1569 90.3965 16.7177C90.4514 16.6216 90.5338 16.5736 90.6436 16.5736C90.8357 16.5736 90.9318 16.6765 90.9318 16.8824C90.9318 16.951 90.9181 17.0059 90.8906 17.0471C90.52 17.6373 90.1083 18.2206 89.6553 18.7971C89.2161 19.3736 88.7151 19.854 88.1524 20.2383C87.6034 20.6089 86.9789 20.7942 86.2789 20.7942Z" fill="#868686"/>
<path d="M68.5824 22.7088C67.7451 22.7088 67.0588 22.5373 66.5235 22.1941C66.002 21.851 65.6176 21.3843 65.3706 20.7941C65.1235 20.2176 65 19.5725 65 18.8588C65 17.7608 65.2676 16.6216 65.8029 15.4412C66.201 14.5902 66.7294 13.8078 67.3882 13.0941C68.0471 12.3667 68.7882 11.7902 69.6118 11.3647C70.4353 10.9255 71.3 10.7059 72.2059 10.7059C72.9059 10.7059 73.4618 10.802 73.8735 10.9941C74.2853 11.1725 74.5804 11.4127 74.7588 11.7147C74.951 12.0029 75.0471 12.3118 75.0471 12.6412C75.0471 13.0941 74.9098 13.5196 74.6353 13.9176C74.3608 14.3157 74.0245 14.5696 73.6265 14.6794C73.6127 14.6931 73.5922 14.7 73.5647 14.7C73.551 14.7137 73.5235 14.7206 73.4824 14.7206C73.5098 14.7206 73.5373 14.7137 73.5647 14.7C73.5784 14.7 73.5853 14.7 73.5853 14.7L73.6265 14.6794C73.8186 14.5971 74.0039 14.3843 74.1824 14.0412C74.3745 13.698 74.4706 13.3275 74.4706 12.9294C74.4706 12.4902 74.3059 12.0922 73.9765 11.7353C73.6471 11.3784 73.0363 11.2 72.1441 11.2C71.348 11.2 70.5725 11.4127 69.8176 11.8382C69.0765 12.2637 68.4039 12.8265 67.8 13.5265C67.2098 14.2265 66.7294 14.9814 66.3588 15.7912C65.8922 16.848 65.6588 17.8775 65.6588 18.8794C65.6588 19.7853 65.8922 20.5539 66.3588 21.1853C66.8255 21.8167 67.5667 22.1324 68.5824 22.1324C69.1725 22.1324 69.7833 21.9676 70.4147 21.6382C71.0598 21.3088 71.7049 20.8833 72.35 20.3618C73.0088 19.8265 73.6471 19.2431 74.2647 18.6118C74.8961 17.9804 75.4863 17.3696 76.0353 16.7794C75.5137 16.8343 75.0127 16.9029 74.5324 16.9853C74.0657 17.0539 73.6127 17.1431 73.1735 17.2529H73.0912C72.9265 17.2529 72.8441 17.1706 72.8441 17.0059C72.8441 16.9373 72.8716 16.8686 72.9265 16.8C72.9814 16.7176 73.0569 16.6696 73.1529 16.6559C74.1549 16.4912 75.2461 16.3539 76.4265 16.2441C78.6775 13.5814 80.4755 11.4951 81.8206 9.98529C83.1657 8.47549 84.2363 7.54902 85.0324 7.20588C85.348 7.06863 85.65 7 85.9382 7C86.2402 7 86.3912 7.09608 86.3912 7.28824C86.3912 7.48039 86.2059 7.76176 85.8353 8.13235C85.3412 8.6402 84.8333 9.31961 84.3118 10.1706C83.8039 11.0216 83.3235 11.9549 82.8706 12.9706C82.4314 13.9725 82.0676 14.9882 81.7794 16.0176C81.9716 16.0176 82.1294 16.0176 82.2529 16.0176C82.3765 16.0039 82.4863 16.0039 82.5824 16.0176C82.7196 16.0314 82.8225 16.0725 82.8912 16.1412C82.9598 16.2098 82.9941 16.2784 82.9941 16.3471C82.9941 16.5118 82.8912 16.5941 82.6853 16.5941C82.548 16.5941 82.3902 16.5941 82.2118 16.5941C82.0471 16.5804 81.8686 16.5735 81.6765 16.5735C81.4431 17.5069 81.3265 18.3647 81.3265 19.1471C81.3265 19.3392 81.3333 19.5245 81.3471 19.7029C81.3608 19.8814 81.3814 20.0529 81.4088 20.2176C81.4775 20.5471 81.5598 20.8353 81.6559 21.0824C81.7657 21.3294 81.9098 21.4529 82.0882 21.4529C82.2941 21.4529 82.5549 21.2539 82.8706 20.8559C82.9804 20.7324 83.0833 20.6706 83.1794 20.6706C83.248 20.6706 83.3029 20.698 83.3441 20.7529C83.3853 20.8216 83.3784 20.9108 83.3235 21.0206C83.0216 21.6382 82.6167 21.9471 82.1088 21.9471C81.8343 21.9471 81.5667 21.8235 81.3059 21.5765C81.0588 21.3294 80.8804 20.9314 80.7706 20.3824C80.6882 19.9843 80.6471 19.552 80.6471 19.0853C80.6471 18.701 80.6676 18.3029 80.7088 17.8912C80.7637 17.4657 80.8392 17.0265 80.9353 16.5735C80.3725 16.5735 79.7343 16.5804 79.0206 16.5941C78.3206 16.5941 77.6137 16.6284 76.9 16.6971C76.8863 16.7245 76.8588 16.7588 76.8176 16.8C76.7765 16.8274 76.7422 16.8549 76.7147 16.8824C76.1657 17.5 75.5549 18.152 74.8824 18.8382C74.2098 19.5108 73.5098 20.1422 72.7824 20.7324C72.0686 21.3225 71.348 21.7961 70.6206 22.1529C69.9069 22.5235 69.2275 22.7088 68.5824 22.7088ZM77.3735 16.1412C78.0461 16.1 78.7049 16.0725 79.35 16.0588C79.9951 16.0314 80.5716 16.0108 81.0794 15.9971C81.3265 14.9951 81.6627 14.0069 82.0882 13.0324C82.5137 12.0441 82.9735 11.1314 83.4676 10.2941C83.9618 9.45686 84.4284 8.77059 84.8676 8.23529C84.9088 8.18039 84.9706 8.09804 85.0529 7.98823C85.1353 7.86471 85.2108 7.7549 85.2794 7.65882C85.3618 7.54902 85.3892 7.50098 85.3618 7.51471C84.6206 7.83039 83.6118 8.73627 82.3353 10.2324C81.0725 11.7147 79.4186 13.6843 77.3735 16.1412Z" fill="#868686"/>
<path d="M82.3008 8.35156H84.5078L83.0312 10.5195H80.957L82.3008 8.35156Z" fill="#222222"/>
<path d="M69.2773 10.9375L73.5793 9.75146L72.7401 11.8299L69.75 12.1133L69.2773 10.9375Z" fill="#222222"/>
</svg>
